<?xml version="1.0" standalone="no"?>
<!DOCTYPE svg PUBLIC "-//W3C//DTD SVG 20010904//EN"
 "http://www.w3.org/TR/2001/REC-SVG-20010904/DTD/svg10.dtd">
<svg version="1.0" xmlns="http://www.w3.org/2000/svg"
 width="512.000000pt" height="512.000000pt" viewBox="0 0 512.000000 512.000000"
 preserveAspectRatio="xMidYMid meet">
<metadata>
Created by potrace 1.14, written by Peter Selinger 2001-2017
</metadata>
<g transform="translate(0.000000,512.000000) scale(0.100000,-0.100000)"
fill="#000000" stroke="none">
<path d="M0 2560 l0 -2560 2560 0 2560 0 0 2560 0 2560 -2560 0 -2560 0 0
-2560z m4980 -5 l0 -2415 -2415 0 -2415 0 0 2415 0 2415 2415 0 2415 0 0
-2415z"/>
<path d="M3921 3670 c-97 -26 -152 -59 -228 -138 -73 -74 -137 -194 -154 -287
-21 -114 6 -268 63 -358 54 -85 148 -147 473 -310 243 -123 347 -198 413 -296
55 -82 68 -147 53 -262 -24 -185 -83 -280 -209 -336 -109 -48 -228 -40 -361
25 -134 65 -223 180 -283 369 l-33 102 -34 1 c-55 0 -112 -21 -107 -39 3 -9
23 -135 46 -281 22 -146 43 -275 45 -287 9 -38 61 -31 125 17 63 47 81 48 175
14 118 -42 176 -54 278 -54 115 0 230 22 307 58 71 33 185 148 227 227 100
191 86 438 -35 611 -93 132 -163 180 -512 352 -250 123 -327 172 -367 231 -62
91 -57 255 11 390 37 72 71 107 134 138 51 25 68 28 162 28 88 0 113 -4 155
-23 118 -54 182 -126 269 -300 l51 -104 53 4 c29 3 58 10 63 15 8 8 5 78 -10
240 -12 125 -24 238 -27 251 -7 36 -53 30 -86 -12 -39 -48 -64 -51 -150 -17
-106 41 -163 51 -306 50 -92 0 -147 -5 -201 -19z"/>
<path d="M640 3631 l0 -40 176 -3 176 -3 24 -28 24 -28 0 -924 c0 -605 -4
-950 -11 -1001 -21 -151 -67 -229 -166 -278 -89 -45 -186 -44 -244 3 -22 18
-22 19 -5 56 28 58 5 140 -50 184 -22 17 -41 21 -105 21 -70 0 -81 -3 -110
-27 -116 -98 -54 -277 120 -344 77 -30 284 -38 391 -15 216 45 377 197 425
398 12 53 15 208 15 986 0 1016 -3 969 61 991 18 6 99 11 185 11 l154 0 0 40
0 40 -530 0 -530 0 0 -39z"/>
<path d="M1860 3631 l0 -39 65 -4 c51 -3 70 -9 88 -26 l22 -23 3 -906 c2 -793
0 -909 -13 -929 -17 -27 -71 -44 -137 -44 l-48 0 0 -40 0 -40 330 0 330 0 0
40 0 40 -47 0 c-27 0 -65 5 -85 10 -70 20 -68 8 -68 466 l0 412 238 5 c264 6
308 14 427 75 132 68 223 183 260 327 20 80 20 255 -1 326 -42 141 -141 262
-267 323 -126 61 -173 66 -662 66 l-435 0 0 -39z m781 -55 c135 -24 228 -89
276 -193 71 -153 69 -393 -3 -541 -32 -65 -110 -130 -204 -169 -60 -25 -78
-27 -237 -31 l-173 -4 0 435 c0 252 4 446 10 461 15 42 54 55 160 55 52 0 129
-6 171 -13z"/>
</g>
</svg>
